<svg width="814" height="950" viewBox="0 0 814 950" fill="none" xmlns="http://www.w3.org/2000/svg">
<path d="M561.001 598.58L342.501 912.08L249.001 857.08V709.08L329.001 755.58L409.501 638.58V508.58L561.001 598.58Z" fill="black"/>
<path d="M329.001 589.08L173.001 812.08L1.50146 709.08V479.08L163.001 367.58L245.501 415.58V537.58L163.001 487.58L100.001 530.58V650.58L150.501 678.58L249.001 539.08L329.001 589.08Z" fill="black"/>
<path d="M120.501 359.58L1.50146 443.58L0.501465 240.08L407.001 0.580444L813.001 240.08V712.58L407.501 949.08L367.501 924.58L478.001 767.58L693.501 640.58V311.08L407.001 142.58L120.501 311.08V359.58Z" fill="black"/>
<path d="M561.001 598.58L342.501 912.08L249.001 857.08V709.08L329.001 755.58L409.501 638.58V508.58L561.001 598.58Z" stroke="black"/>
<path d="M329.001 589.08L173.001 812.08L1.50146 709.08V479.08L163.001 367.58L245.501 415.58V537.58L163.001 487.58L100.001 530.58V650.58L150.501 678.58L249.001 539.08L329.001 589.08Z" stroke="black"/>
<path d="M120.501 359.58L1.50146 443.58L0.501465 240.08L407.001 0.580444L813.001 240.08V712.58L407.501 949.08L367.501 924.58L478.001 767.58L693.501 640.58V311.08L407.001 142.58L120.501 311.08V359.58Z" stroke="black"/>
</svg>
